<?xml version="1.0" encoding="UTF-8" standalone="no"?>
<!-- Created with Inkscape (http://www.inkscape.org/) -->

<svg
   width="512"
   height="512"
   viewBox="0 0 512 512"
   version="1.1"
   id="svg1"
   inkscape:version="1.4.2 (f4327f4, 2025-05-13)"
   sodipodi:docname="LOGOSVG2.svg"
   xmlns:inkscape="http://www.inkscape.org/namespaces/inkscape"
   xmlns:sodipodi="http://sodipodi.sourceforge.net/DTD/sodipodi-0.dtd"
   xmlns="http://www.w3.org/2000/svg"
   xmlns:svg="http://www.w3.org/2000/svg">
  <sodipodi:namedview
     id="namedview1"
     pagecolor="#ffffff"
     bordercolor="#000000"
     borderopacity="0.25"
     inkscape:showpageshadow="2"
     inkscape:pageopacity="0.0"
     inkscape:pagecheckerboard="0"
     inkscape:deskcolor="#d1d1d1"
     inkscape:document-units="px"
     inkscape:zoom="1.1145218"
     inkscape:cx="235.0784"
     inkscape:cy="280.38931"
     inkscape:window-width="1920"
     inkscape:window-height="1009"
     inkscape:window-x="-8"
     inkscape:window-y="-8"
     inkscape:window-maximized="1"
     inkscape:current-layer="layer2"
     showguides="false" />
  <defs
     id="defs1" />
  <g
     inkscape:label="Vrstva 1"
     inkscape:groupmode="layer"
     id="layer1" />
  <g
     inkscape:groupmode="layer"
     id="layer3"
     inkscape:label="Decor">
    <path
       sodipodi:type="star"
       style="opacity:0.99;fill:#ffb6c1"
       id="path16"
       inkscape:flatsided="false"
       sodipodi:sides="4"
       sodipodi:cx="135.48412"
       sodipodi:cy="35.889832"
       sodipodi:r1="7.6750788"
       sodipodi:r2="3.5038569"
       sodipodi:arg1="1.2551541"
       sodipodi:arg2="2.0405522"
       inkscape:rounded="0.1"
       inkscape:randomized="0"
       d="m 137.86667,43.18574 c -0.54734,0.178738 -3.45523,-3.910956 -3.96864,-4.171593 -0.51341,-0.260638 -5.53109,-0.194428 -5.70982,-0.741763 -0.17874,-0.547336 3.91095,-3.455228 4.17159,-3.968639 0.26064,-0.513411 0.19443,-5.531084 0.74176,-5.709822 0.54734,-0.178738 3.45523,3.910956 3.96864,4.171594 0.51341,0.260637 5.53109,0.194428 5.70982,0.741763 0.17874,0.547335 -3.91095,3.455227 -4.17159,3.968638 -0.26064,0.513411 -0.19443,5.531084 -0.74176,5.709822 z"
       inkscape:transform-center-x="0.67432065"
       inkscape:transform-center-y="-2.491307"
       transform="matrix(4.691644,0,0,4.691644,-565.65807,90.024477)" />
    <path
       sodipodi:type="star"
       style="opacity:0.99;fill:#ffb6c1"
       id="path16-8"
       inkscape:flatsided="false"
       sodipodi:sides="4"
       sodipodi:cx="206.81789"
       sodipodi:cy="32.447453"
       sodipodi:r1="7.9223974"
       sodipodi:r2="3.5038569"
       sodipodi:arg1="1.9038103"
       sodipodi:arg2="2.6892084"
       inkscape:rounded="0.1"
       inkscape:randomized="0"
       d="m 204.22811,39.934605 c -0.56533,-0.195548 -0.30014,-5.417552 -0.56162,-5.955577 -0.26148,-0.538026 -4.5313,-3.556015 -4.33576,-4.121351 0.19555,-0.565336 5.41756,-0.30014 5.95558,-0.56162 0.53803,-0.261479 3.55602,-4.531304 4.12135,-4.335757 0.56534,0.195548 0.30014,5.417552 0.56162,5.955577 0.26148,0.538026 4.53131,3.556015 4.33576,4.121351 -0.19555,0.565336 -5.41755,0.30014 -5.95558,0.56162 -0.53802,0.261479 -3.55601,4.531304 -4.12135,4.335757 z"
       inkscape:transform-center-x="0.67432065"
       inkscape:transform-center-y="-2.491307"
       transform="matrix(4.691644,0,0,4.691644,-537.38674,102.87419)" />
    <path
       sodipodi:type="star"
       style="opacity:0.99;fill:#ffb6c1"
       id="path17"
       inkscape:flatsided="false"
       sodipodi:sides="5"
       sodipodi:cx="76.265891"
       sodipodi:cy="416.32204"
       sodipodi:r1="17.141857"
       sodipodi:r2="7.8256672"
       sodipodi:arg1="0.74837805"
       sodipodi:arg2="1.3766966"
       inkscape:rounded="0.1"
       inkscape:randomized="0"
       d="m 88.827333,427.98625 c -0.799438,0.86093 -9.899198,-4.2121 -11.052001,-3.98548 -1.152803,0.22661 -7.655214,8.36663 -8.72105,7.87236 -1.065837,-0.49427 0.946917,-10.71631 0.375161,-11.74266 -0.571756,-1.02636 -10.322728,-4.69511 -10.182013,-5.86152 0.140716,-1.16641 10.484426,-2.41095 11.283864,-3.27188 0.799438,-0.86094 1.275418,-11.26837 2.428221,-11.49498 1.152803,-0.22661 5.532813,9.22626 6.59865,9.72052 1.065836,0.49427 11.110979,-2.26912 11.682735,-1.24276 0.571756,1.02635 -7.064958,8.11308 -7.205674,9.27949 -0.140715,1.16641 5.591546,9.86597 4.792107,10.72691 z"
       inkscape:transform-center-x="1.0071969"
       inkscape:transform-center-y="-0.62563542" />
    <path
       sodipodi:type="star"
       style="opacity:0.99;fill:#ffb6c1"
       id="path18"
       inkscape:flatsided="false"
       sodipodi:sides="5"
       sodipodi:cx="330.18645"
       sodipodi:cy="461.18433"
       sodipodi:r1="20.656149"
       sodipodi:r2="9.4300255"
       sodipodi:arg1="2.5415424"
       sodipodi:arg2="3.169861"
       inkscape:rounded="0.1"
       inkscape:randomized="0"
       d="m 313.13879,472.84852 c -0.79943,-1.16841 7.5814,-10.51557 7.62141,-11.93073 0.04,-1.41516 -7.79925,-11.22096 -6.93507,-12.34233 0.86419,-1.12137 12.34369,3.96085 13.70195,3.5616 1.35826,-0.39925 8.26166,-10.885 9.59519,-10.40963 1.33354,0.47536 0.0474,12.9635 0.84686,14.13191 0.79944,1.16841 12.90524,4.49366 12.86523,5.90882 -0.04,1.41516 -12.31438,4.05104 -13.17856,5.17241 -0.86418,1.12137 -0.28578,13.66224 -1.64405,14.06149 -1.35826,0.39925 -7.65812,-10.45983 -8.99165,-10.93519 -1.33353,-0.47537 -13.08187,3.95006 -13.88131,2.78165 z"
       inkscape:transform-center-x="-1.7732841"
       inkscape:transform-center-y="0.17794518" />
    <path
       sodipodi:type="star"
       style="opacity:0.99;fill:#ffb6c1"
       id="path19"
       inkscape:flatsided="false"
       sodipodi:sides="5"
       sodipodi:cx="445.93115"
       sodipodi:cy="360.6928"
       sodipodi:r1="17.696453"
       sodipodi:r2="8.0788535"
       sodipodi:arg1="2.1025204"
       sodipodi:arg2="2.7308389"
       inkscape:rounded="0.1"
       inkscape:randomized="0"
       d="m 436.95869,375.94599 c -1.04541,-0.61495 2.04991,-10.9153 1.56561,-12.02729 -0.4843,-1.11199 -10.13423,-5.86143 -9.87242,-7.04571 0.2618,-1.18429 11.01452,-1.42344 11.92242,-2.22766 0.90791,-0.80423 2.44291,-11.4495 3.65013,-11.56648 1.20722,-0.11697 4.75744,10.03557 5.80286,10.65052 1.04542,0.61495 11.64402,-1.21475 12.12833,-0.10276 0.4843,1.11199 -8.07426,7.62576 -8.33607,8.81004 -0.2618,1.18428 4.7535,10.69874 3.8456,11.50297 -0.90791,0.80422 -9.74762,-5.32259 -10.95484,-5.20562 -1.20722,0.11698 -8.7062,7.82694 -9.75162,7.21199 z"
       inkscape:transform-center-x="0.52012202"
       inkscape:transform-center-y="-1.1634332" />
    <path
       sodipodi:type="star"
       style="opacity:0.99;fill:#ffb6c1"
       id="path21"
       inkscape:flatsided="false"
       sodipodi:sides="5"
       sodipodi:cx="87.930086"
       sodipodi:cy="41.273306"
       sodipodi:r1="19.033457"
       sodipodi:r2="8.689228"
       sodipodi:arg1="0.78539816"
       sodipodi:arg2="1.4137167"
       inkscape:rounded="0.1"
       inkscape:randomized="0"
       d="m 101.38877,54.731994 c -0.92243,0.922429 -10.810941,-5.080507 -12.099391,-4.876437 -1.28845,0.204071 -8.837975,8.968921 -10.000303,8.376685 C 78.126748,57.640006 80.780161,46.380463 80.187925,45.218135 79.59569,44.055807 68.92689,39.58427 69.130961,38.295819 c 0.20407,-1.28845 11.732483,-2.244295 12.654911,-3.166723 0.922429,-0.922429 1.878273,-12.450841 3.166724,-12.654912 1.28845,-0.20407 5.759987,10.464729 6.922315,11.056965 1.162328,0.592236 12.421869,-2.061178 13.014109,-0.89885 0.59223,1.162328 -8.172616,8.711853 -8.376687,10.000304 -0.20407,1.28845 5.798867,11.176963 4.876437,12.099391 z"
       inkscape:transform-center-x="0.90718542"
       inkscape:transform-center-y="-0.90718542" />
    <path
       sodipodi:type="star"
       style="opacity:0.99;fill:#ffb6c1"
       id="path22"
       inkscape:flatsided="false"
       sodipodi:sides="5"
       sodipodi:cx="282.63242"
       sodipodi:cy="48.451272"
       sodipodi:r1="18.92742"
       sodipodi:r2="8.6408198"
       sodipodi:arg1="2.1193457"
       sodipodi:arg2="2.7476643"
       inkscape:rounded="0.1"
       inkscape:randomized="0"
       d="m 272.76271,64.601695 c -1.10691,-0.676448 2.38861,-11.636029 1.8907,-12.833915 -0.49791,-1.197885 -10.73215,-6.450627 -10.43087,-7.712399 0.30129,-1.261772 11.80464,-1.324033 12.79004,-2.167737 0.98539,-0.843705 2.81849,-12.200236 4.11161,-12.303606 1.29312,-0.10337 4.90707,10.817731 6.01398,11.494179 1.10692,0.676447 12.47408,-1.089533 12.97198,0.108353 0.49791,1.197885 -8.7719,8.009758 -9.07319,9.27153 -0.30128,1.261772 4.89091,11.526867 3.90552,12.370571 -0.9854,0.843705 -10.32841,-5.867427 -11.62152,-5.764057 -1.29312,0.10337 -9.45133,8.213528 -10.55825,7.537081 z"
       inkscape:transform-center-x="0.45964895"
       inkscape:transform-center-y="-1.338733" />
    <path
       sodipodi:type="star"
       style="opacity:0.99;fill:#ffb6c1"
       id="path23"
       inkscape:flatsided="false"
       sodipodi:sides="5"
       sodipodi:cx="450.41738"
       sodipodi:cy="28.711865"
       sodipodi:r1="27.332881"
       sodipodi:r2="12.478114"
       sodipodi:arg1="1.1659045"
       sodipodi:arg2="1.7942231"
       inkscape:rounded="0.1"
       inkscape:randomized="0"
       d="m 461.18434,53.834747 c -1.72187,0.737943 -11.70499,-12.539846 -13.53176,-12.954926 -1.82677,-0.415079 -16.56739,7.244975 -17.8013,5.83542 -1.23391,-1.409556 8.30906,-15.007129 8.13932,-16.872759 -0.16974,-1.865629 -12.00998,-13.517705 -11.05072,-15.126801 0.95927,-1.609097 16.84027,3.26493 18.56214,2.526987 1.72187,-0.737943 9.14481,-15.5993766 10.97158,-15.184297 1.82677,0.4150797 2.0988,17.024967 3.33271,18.434522 1.23391,1.409556 17.66179,3.876761 17.83153,5.74239 0.16974,1.86563 -15.54314,7.257078 -16.50241,8.866175 -0.95927,1.609096 1.77078,17.995346 0.0489,18.733289 z"
       inkscape:transform-center-x="-1.8445149"
       inkscape:transform-center-y="-0.75474717" />
    <path
       sodipodi:type="star"
       style="opacity:0.99;fill:#ffb6c1"
       id="path24"
       inkscape:flatsided="false"
       sodipodi:sides="5"
       sodipodi:cx="227.90043"
       sodipodi:cy="236.87289"
       sodipodi:r1="10.80427"
       sodipodi:r2="4.9324077"
       sodipodi:arg1="2.4149503"
       sodipodi:arg2="3.0432688"
       inkscape:rounded="0.1"
       inkscape:randomized="0"
       d="m 219.82522,244.05086 c -0.49196,-0.55346 3.23932,-5.95685 3.16663,-6.69377 -0.0727,-0.73693 -4.78779,-5.30715 -4.41344,-5.94606 0.37434,-0.63892 6.6663,1.24 7.3447,0.94315 0.67839,-0.29686 3.56789,-6.19346 4.29121,-6.03487 0.72332,0.15859 0.88068,6.72321 1.37264,7.27667 0.49197,0.55346 6.99287,1.47938 7.06556,2.21631 0.0727,0.73692 -6.12201,2.91517 -6.49635,3.55408 -0.37435,0.63891 0.75393,7.10776 0.0755,7.40462 -0.67839,0.29686 -4.6643,-4.92154 -5.38762,-5.08013 -0.72332,-0.15859 -6.5269,2.91346 -7.01887,2.36 z"
       inkscape:transform-center-x="-0.70476481"
       inkscape:transform-center-y="-0.32321716" />
    <path
       sodipodi:type="star"
       style="opacity:0.99;fill:#ffb6c1"
       id="path25"
       inkscape:flatsided="false"
       sodipodi:sides="5"
       sodipodi:cx="36.787077"
       sodipodi:cy="144.45657"
       sodipodi:r1="11.098317"
       sodipodi:r2="5.0666474"
       sodipodi:arg1="1.815775"
       sodipodi:arg2="2.4440935"
       inkscape:rounded="0.1"
       inkscape:randomized="0"
       d="m 34.095341,155.22352 c -0.737942,-0.18448 -0.703028,-6.92962 -1.191599,-7.51262 -0.48857,-0.58301 -7.135852,-1.72832 -7.188433,-2.48715 -0.05258,-0.75884 6.373215,-2.80999 6.776708,-3.45481 0.403494,-0.64481 -0.561377,-7.32067 0.144069,-7.60517 0.705447,-0.2845 4.641892,5.19295 5.379835,5.37743 0.737943,0.18449 6.788903,-2.79611 7.277473,-2.21311 0.48857,0.58301 -3.504368,6.01941 -3.451787,6.77825 0.05258,0.75883 4.75715,5.59258 4.353656,6.2374 -0.403493,0.64481 -6.80771,-1.47275 -7.513156,-1.18825 -0.705447,0.2845 -3.848823,6.25252 -4.586766,6.06803 z"
       inkscape:transform-center-x="0.81968176"
       inkscape:transform-center-y="0.23381123" />
    <path
       sodipodi:type="star"
       style="opacity:0.99;fill:#ffb6c1"
       id="path26"
       inkscape:flatsided="false"
       sodipodi:sides="5"
       sodipodi:cx="185.72988"
       sodipodi:cy="456.6981"
       sodipodi:r1="25.138899"
       sodipodi:r2="11.476509"
       sodipodi:arg1="2.1785983"
       sodipodi:arg2="2.8069169"
       inkscape:rounded="0.1"
       inkscape:randomized="0"
       d="m 171.37394,477.33474 c -1.41439,-0.98392 4.08211,-15.23967 3.51618,-16.86704 -0.56593,-1.62737 -13.72179,-9.39662 -13.2231,-11.04584 0.4987,-1.64921 15.75524,-0.827 17.12807,-1.86812 1.37284,-1.04111 4.69645,-15.95391 6.41906,-15.98926 1.7226,-0.0353 5.65516,14.72856 7.06955,15.71248 1.41439,0.98393 16.62436,-0.46344 17.19029,1.16393 0.56593,1.62737 -12.26015,9.92976 -12.75885,11.57897 -0.4987,1.64922 5.57797,15.66749 4.20513,16.70861 -1.37284,1.04111 -13.23235,-8.59163 -14.95496,-8.55629 -1.7226,0.0353 -13.17698,10.14649 -14.59137,9.16256 z"
       inkscape:transform-center-x="0.15718708"
       inkscape:transform-center-y="-2.2148016" />
    <path
       sodipodi:type="star"
       style="opacity:0.99;fill:#ffb6c1"
       id="path27"
       inkscape:flatsided="false"
       sodipodi:sides="5"
       sodipodi:cx="450.41738"
       sodipodi:cy="459.38984"
       sodipodi:r1="14.015427"
       sodipodi:r2="6.3983779"
       sodipodi:arg1="0.87605805"
       sodipodi:arg2="1.5043766"
       inkscape:rounded="0.1"
       inkscape:randomized="0"
       d="m 459.38985,470.15678 c -0.73795,0.61495 -7.58933,-4.44643 -8.54779,-4.38268 -0.95847,0.0638 -7.07911,5.98801 -7.89201,5.47622 -0.81289,-0.5118 1.88358,-8.5919 1.52677,-9.48376 -0.35682,-0.89186 -7.8825,-4.88224 -7.64696,-5.81349 0.23555,-0.93126 8.75344,-0.86366 9.49139,-1.47861 0.73794,-0.61495 2.20745,-9.0054 3.16592,-9.06915 0.95847,-0.0638 3.52634,8.05813 4.33924,8.56993 0.81289,0.51179 9.24678,-0.68341 9.6036,0.20845 0.35682,0.89185 -6.57404,5.84385 -6.80959,6.77511 -0.23555,0.93126 3.50737,8.58303 2.76943,9.19798 z"
       inkscape:transform-center-x="0.28350247"
       inkscape:transform-center-y="-1.046534" />
  </g>
  <g
     inkscape:groupmode="layer"
     id="layer2"
     inkscape:label="Text">
    <path
       d="m 185.18422,14.588608 2.32422,13.763015 0.0911,0.638021 q 0,1.321614 -0.95703,1.321614 -0.63802,0 -1.27604,-1.002604 -3.50912,-5.468748 -7.92969,-8.476559 -4.42057,-3.053384 -14.26432,-3.053384 -6.79036,0 -7.61067,1.458332 -0.82031,1.41276 -0.82031,22.421867 5.05859,0 7.74739,-0.683594 2.73437,-0.729166 4.19271,-2.506509 1.5039,-1.777343 2.73437,-6.562498 0.31901,-1.276041 1.04818,-1.276041 1.36718,0 1.36718,1.73177 l -0.31901,14.537755 q -0.13671,7.565102 -0.41015,8.157549 -0.27344,0.546875 -1.00261,0.546875 -1.13932,0 -1.36718,-1.822916 -0.5013,-4.23828 -2.91667,-6.653643 -2.36979,-2.460937 -11.07421,-2.460937 l -0.0456,16.907546 q 0,4.967446 0.6836,7.063799 0.72916,2.096354 2.14192,2.871093 1.41276,0.729166 4.42058,0.820312 2.18749,0.04557 2.77994,0.31901 0.59245,0.227865 0.59245,1.09375 0,1.458333 -2.05078,1.458333 -1.86849,0 -7.10937,-0.319011 -4.42057,-0.273437 -6.65365,-0.273437 l -14.40103,0.501302 q -2.1875,0 -2.1875,-1.321614 0,-1.230468 2.6888,-1.321614 4.64844,-0.182292 5.55989,-4.147134 0.91146,-3.964842 0.91146,-28.802072 0,-16.132807 -1.18489,-19.231764 -1.13933,-3.098957 -5.65104,-3.098957 l -1.23047,0.04557 q -1.64063,0 -1.64063,-1.367187 0,-1.276041 2.64323,-1.276041 z m 57.37629,0 2.32421,13.763015 0.0911,0.638021 q 0,1.321614 -0.95703,1.321614 -0.63802,0 -1.27604,-1.002604 -3.50912,-5.468748 -7.92969,-8.476559 -4.42057,-3.053384 -14.26431,-3.053384 -6.79037,0 -7.61068,1.458332 -0.82031,1.41276 -0.82031,22.421867 5.05859,0 7.74739,-0.683594 2.73438,-0.729166 4.19271,-2.506509 1.5039,-1.777343 2.73437,-6.562498 0.31901,-1.276041 1.04818,-1.276041 1.36719,0 1.36719,1.73177 l -0.31901,14.537755 q -0.13672,7.565102 -0.41016,8.157549 -0.27344,0.546875 -1.0026,0.546875 -1.13933,0 -1.36719,-1.822916 -0.5013,-4.23828 -2.91667,-6.653643 -2.36979,-2.460937 -11.07421,-2.460937 l -0.0456,16.907546 q 0,4.967446 0.68359,7.063799 0.72917,2.096354 2.14193,2.871093 1.41276,0.729166 4.42057,0.820312 2.1875,0.04557 2.77994,0.31901 0.59245,0.227865 0.59245,1.09375 0,1.458333 -2.05078,1.458333 -1.86849,0 -7.10937,-0.319011 -4.42057,-0.273437 -6.65364,-0.273437 l -14.40104,0.501302 q -2.1875,0 -2.1875,-1.321614 0,-1.230468 2.6888,-1.321614 4.64844,-0.182292 5.5599,-4.147134 0.91145,-3.964842 0.91145,-28.802072 0,-16.132807 -1.18489,-19.231764 -1.13932,-3.098957 -5.65104,-3.098957 l -1.23047,0.04557 q -1.64062,0 -1.64062,-1.367187 0,-1.276041 2.64322,-1.276041 z m 39.87628,21.510408 q 9.79818,-12.076818 9.79818,-15.130202 0,-1.549479 -1.04818,-2.460937 -1.0026,-0.911458 -4.14713,-1.595051 -1.45834,-0.273438 -1.45834,-1.41276 0,-1.184896 1.73177,-1.184896 1.04818,0 3.50912,0.182292 3.41797,0.227864 5.78776,0.227864 3.28124,0 8.61327,-0.273437 2.50651,-0.136719 3.09896,-0.136719 2.1875,0 2.1875,1.321614 0,1.184896 -1.6862,1.276042 -3.09895,0.09115 -6.28906,1.868488 -3.14453,1.777344 -5.83333,4.876301 -2.64323,3.053384 -12.07682,15.312494 5.14974,8.841142 11.98568,18.684889 6.83593,9.843746 10.20833,12.213537 3.37239,2.324217 5.92447,2.597655 2.14193,0.227864 2.14193,1.367187 0,1.276041 -2.1875,1.276041 l -16.8164,-0.546875 q -3.28125,0 -6.51693,0.227865 -2.82551,0.136718 -3.64583,0.182291 -1.95963,0 -2.41536,0.04557 -0.68359,0.09115 -1.04818,0.09115 -1.32161,0 -1.32161,-1.276041 0,-1.139323 1.54948,-1.276041 5.01302,-0.455729 5.01302,-3.509114 0,-3.509113 -11.21094,-19.18619 -11.98567,15.358067 -11.98567,18.320305 0,3.190103 7.29166,4.23828 1.59506,0.227864 1.59506,1.184895 0,1.367187 -1.64063,1.367187 -0.77474,0 -4.14713,-0.182291 -4.05599,-0.227865 -8.11198,-0.227865 -3.82812,0 -5.97005,0.182292 -2.73437,0.273437 -3.64583,0.273437 -2.64323,0 -2.64323,-1.41276 0,-1.048176 1.41276,-1.230468 4.14714,-0.546875 6.5625,-1.959635 2.46094,-1.41276 5.97005,-5.742185 3.55468,-4.374998 13.26171,-17.819004 -11.52994,-18.821607 -16.08723,-24.016917 -4.51172,-5.195311 -9.47916,-5.924477 -1.82292,-0.273438 -1.82292,-1.41276 0,-1.321614 1.6862,-1.321614 0.86588,0 2.36979,0.182291 2.91666,0.319011 12.62369,0.319011 4.05599,0 9.79817,-0.273438 3.46354,-0.182291 4.01042,-0.182291 2.46094,0 2.46094,1.276041 0,1.276041 -1.95964,1.367187 -1.13932,0.09115 -3.00781,0.774739 -1.86849,0.638021 -1.86849,2.05078 0,1.276042 1.91406,4.602863 1.91406,3.281249 7.5651,11.803381 z m 38.23566,-21.920564 q 1.59505,0 6.5625,0.227864 3.78255,0.182292 6.01562,0.182292 l 13.99088,-0.364583 q 1.77735,0 1.77735,1.230468 0,1.093749 -1.59506,1.276041 -3.60025,0.364583 -4.83072,1.367187 -1.1849,0.957031 -1.86849,4.511717 -0.63802,3.554686 -0.63802,16.087233 0,14.401037 0.45573,22.285148 0.45573,7.838539 1.82291,9.707028 1.41276,1.822916 4.64844,1.822916 2.23307,0 2.23307,1.184895 0,1.595052 -2.41536,1.595052 -0.6836,0 -2.00521,-0.04557 -8.56771,-0.592448 -11.71224,-0.592448 -6.8815,0 -10.16275,0.410156 -1.73177,0.182292 -2.46094,0.182292 -1.6862,0 -1.6862,-1.321614 0,-1.048177 1.41276,-1.230469 3.8737,-0.501302 5.19531,-2.141926 1.36719,-1.686197 1.64063,-8.02083 0.27344,-6.334633 0.27344,-19.687493 0,-14.082026 -0.50131,-18.821607 -0.5013,-4.785155 -1.68619,-5.878904 -1.13933,-1.09375 -4.42057,-1.367187 -1.73177,-0.136719 -1.73177,-1.41276 0,-1.184895 1.68619,-1.184895 z m 65.03253,61.614559 h -3.60026 L 373.71931,53.91802 q -3.14453,-8.294268 -7.97526,-20.234367 -4.83073,-11.985673 -6.19792,-13.899735 -1.36718,-1.914062 -2.5065,-2.506509 -1.09375,-0.638021 -3.3724,-0.820312 -1.45833,-0.04557 -1.45833,-1.230469 0,-1.321614 1.73177,-1.321614 l 12.30468,0.410156 q 6.42578,0 12.71484,-0.455729 1.73177,-0.09115 2.09635,-0.09115 2.1875,0 2.1875,1.503905 0,1.002604 -1.95963,1.230469 -5.19531,0.63802 -5.19531,4.694008 0,7.018227 11.98567,37.734361 4.01041,-10.071611 7.65625,-20.325513 l 4.46614,-12.532548 q 0.77474,-2.278645 0.77474,-4.374998 0,-2.141926 -1.50391,-3.645832 -1.45833,-1.503906 -3.32682,-1.549478 -2.09635,-0.09115 -2.09635,-1.230469 0,-1.458333 1.6862,-1.458333 1.27604,0 3.1901,0.136719 3.8737,0.31901 6.97265,0.31901 3.23568,0 5.74219,-0.31901 1.86849,-0.227864 3.09896,-0.227864 1.59505,0 1.59505,1.41276 0,1.184895 -1.59505,1.412759 -2.41537,0.364584 -4.14714,1.686198 -1.73177,1.276041 -3.41797,4.147134 -1.64062,2.871092 -5.51432,12.942703 l -8.11197,20.917961 q -5.83333,15.312494 -7.83854,19.550773 z"
       id="text1"
       style="font-weight:bold;font-size:93.3333px;font-family:'Bell MT';-inkscape-font-specification:'Bell MT, Bold';white-space:pre;inline-size:309.398;opacity:0.99;fill:#ffb6c1"
       transform="matrix(1.2866547,0,0,1.9041807,-99.006489,60.072647)"
       aria-label="FFXIV" />
    <path
       d="m 165.56064,260.64506 q 2.33105,5.55866 8.60696,17.66218 6.2759,12.01388 12.37249,24.47603 6.18625,12.37249 13.89665,26.08983 6.18624,10.84834 6.99315,12.73111 22.50359,-50.29688 34.06919,-80.95915 21.51738,0 39.7175,-1.07587 1.70346,-0.0897 2.51036,-0.0897 3.67589,0 3.67589,2.86899 0,2.51036 -2.86899,2.51036 -10.22075,0 -13.44836,6.99315 -3.13795,6.90349 -3.13795,33.80022 l -0.0897,43.93133 q 0,13.44836 3.49658,18.82771 3.58623,5.37934 11.56559,5.64831 3.8552,0.0897 3.8552,2.60002 0,1.34483 -1.61381,2.24139 l -25.19327,-0.17931 q -11.56559,0 -31.64848,0.8069 -1.70346,-1.16552 -1.70346,-2.51036 0,-2.06208 4.6621,-2.77933 4.75175,-0.8069 6.81384,-2.33105 2.15174,-1.52415 3.22761,-5.64831 1.07586,-4.12417 1.07586,-12.10353 l 0.35863,-40.07613 q 0,-30.75192 0.0897,-35.41402 -24.38636,56.66244 -30.21399,72.3522 l -9.05523,24.29671 q -1.52415,3.8552 -3.0483,3.8552 -1.6138,0 -3.8552,-4.75176 -6.54487,-13.80698 -46.71065,-91.17991 -0.44828,22.23463 -0.44828,59.97971 0,19.90358 2.2414,25.19327 2.24139,5.20003 12.5518,6.09659 3.40692,0.35862 3.40692,2.51036 0,2.33105 -2.77933,2.33105 -0.98621,0 -2.15173,-0.0897 -10.7587,-0.71725 -15.4208,-0.71725 -12.73111,0 -19.27599,0.89656 -1.25518,0.17931 -1.88277,0.17931 -3.13795,0 -3.13795,-2.60002 0,-1.25518 0.71725,-1.70346 0.8069,-0.53793 4.12416,-1.25518 8.60696,-1.6138 11.20697,-6.18625 2.68968,-4.57244 2.68968,-14.97251 l 0.44828,-51.19344 q 0,-17.48288 -0.89656,-23.13119 -0.89656,-5.64831 -4.39313,-8.69661 -3.49658,-3.04829 -11.38629,-4.57244 -2.95864,-0.62759 -2.95864,-2.95864 0,-2.51036 3.22761,-2.51036 0.71725,0 1.97243,0.0897 9.14489,0.71725 37.74507,0.71725 z m 171.24252,55.9452 q 9.86213,-8.06902 22.6829,-22.77257 12.82078,-14.70354 14.7932,-17.66218 2.06209,-2.95864 2.06209,-4.75176 0,-4.57244 -8.33799,-6.2759 -3.58623,-0.71725 -3.58623,-2.95864 0,-2.68968 3.40692,-2.68968 1.16552,0 3.0483,0.17932 6.90349,0.98621 19.81392,0.98621 3.31726,0 10.48972,-0.53794 6.81384,-0.44827 9.14489,-0.44827 3.8552,0 3.8552,2.68967 0,2.33105 -3.67589,2.77933 -5.11038,0.53793 -10.31041,2.86898 -5.20003,2.2414 -12.46215,8.15868 -7.26212,5.82762 -15.06217,14.25526 l -17.66218,19.4553 6.00693,-0.17931 q 10.31041,0 17.21391,4.39313 6.90349,4.39314 9.77248,10.66904 2.95864,6.2759 6.72418,22.05532 2.86898,11.7449 4.75175,16.407 1.88278,4.6621 5.82763,8.06902 4.03451,3.31727 8.78626,3.67589 4.03451,0.35862 4.03451,2.24139 0,2.68968 -3.85519,2.68968 -1.07587,0 -3.13796,-0.17932 -7.80005,-0.89655 -16.13803,-0.89655 -8.87592,0 -17.66219,1.07587 -3.0483,-4.75176 -4.6621,-10.13111 -1.52415,-5.37934 -4.75175,-25.91051 -2.42071,-15.15183 -6.72419,-20.35186 -4.21382,-5.28969 -9.50351,-5.28969 -6.36556,0 -14.88285,8.24833 l -0.17932,23.13119 q 0,15.95872 1.79312,19.90358 1.79311,3.94485 9.77248,4.93106 4.21382,0.53794 4.21382,2.33105 0,3.13796 -3.76554,3.13796 -1.79312,0 -5.28969,-0.35863 -9.05524,-0.98621 -21.51739,-0.98621 -8.06902,0 -18.46909,1.16552 -3.58623,0.35863 -5.20003,0.35863 -3.0483,0 -3.0483,-2.95864 0,-1.4345 0.98622,-1.97243 0.98621,-0.53793 4.57244,-0.89656 4.30348,-0.53793 6.18625,-2.24139 1.97243,-1.79312 2.77933,-5.91728 0.89656,-4.21382 1.34483,-20.17255 0.53794,-15.95873 0.53794,-35.32437 0,-19.54496 -0.53794,-27.61398 -0.44827,-8.06901 -1.97242,-11.83456 -1.52415,-3.85519 -3.40692,-4.84141 -1.79312,-1.07587 -7.44143,-1.6138 -2.86898,-0.17931 -2.86898,-2.51036 0,-2.77933 4.48278,-2.77933 3.22761,0 9.68283,0.53793 7.97936,0.71725 13.08974,0.71725 3.13795,0 17.8415,-0.8069 4.30347,-0.17931 6.63452,-0.17931 3.40692,0 3.40692,2.4207 0,2.51036 -3.49657,2.86899 -6.00694,0.53793 -7.80006,2.86898 -1.79311,2.33105 -1.97242,7.26212 -0.17931,4.84141 -0.35862,41.51062 z"
       id="text2"
       style="font-weight:bold;font-size:183.615px;font-family:'Bell MT';-inkscape-font-specification:'Bell MT, Bold';opacity:0.99;fill:#ffb6c1;stroke-width:1.67795"
       transform="scale(0.93299759,1.0718141)"
       aria-label="MK" />
  </g>
</svg>
